<svg width="24" height="16" viewBox="0 0 24 16" fill="none" xmlns="http://www.w3.org/2000/svg">
<g clip-path="url(#clip0)">
<path d="M14.36 14H7.13C6.93109 14 6.74032 13.921 6.59967 13.7803C6.45902 13.6397 6.38 13.4489 6.38 13.25C6.38 13.0511 6.45902 12.8603 6.59967 12.7197C6.74032 12.579 6.93109 12.5 7.13 12.5H13.61V1.75C13.61 1.6837 13.5837 1.62011 13.5368 1.57322C13.4899 1.52634 13.4263 1.5 13.36 1.5H1.75C1.6837 1.5 1.62011 1.52634 1.57322 1.57322C1.52634 1.62011 1.5 1.6837 1.5 1.75V12.22C1.5 12.2863 1.52634 12.3499 1.57322 12.3968C1.62011 12.4437 1.6837 12.47 1.75 12.47H3.11C3.30891 12.47 3.49968 12.549 3.64033 12.6897C3.78098 12.8303 3.86 13.0211 3.86 13.22C3.86 13.4189 3.78098 13.6097 3.64033 13.7503C3.49968 13.891 3.30891 13.97 3.11 13.97H1.75C1.28668 13.9674 0.843085 13.7822 0.515464 13.4545C0.187842 13.1269 0.0026251 12.6833 0 12.22L0 1.75C0.0026251 1.28668 0.187842 0.843085 0.515464 0.515464C0.843085 0.187842 1.28668 0.0026251 1.75 0H13.36C13.8241 0 14.2692 0.184374 14.5974 0.512563C14.9256 0.840752 15.11 1.28587 15.11 1.75V13.22C15.1127 13.3206 15.0953 13.4208 15.0589 13.5147C15.0225 13.6085 14.9679 13.6943 14.8981 13.7668C14.8283 13.8394 14.7448 13.8974 14.6524 13.9374C14.5601 13.9774 14.4607 13.9987 14.36 14Z" fill="#F43838"/>
<path d="M22 14H20.7C20.5011 14 20.3103 13.921 20.1697 13.7804C20.029 13.6397 19.95 13.449 19.95 13.25C19.95 13.0511 20.029 12.8604 20.1697 12.7197C20.3103 12.5791 20.5011 12.5 20.7 12.5H22C22.0663 12.5 22.1299 12.4737 22.1768 12.4268C22.2236 12.3799 22.25 12.3164 22.25 12.25V9.15005C22.2521 8.83988 22.138 8.54017 21.93 8.31005L18.71 4.71005C18.5927 4.57989 18.4492 4.47606 18.2889 4.40539C18.1286 4.33472 17.9552 4.29882 17.78 4.30005H15.11V12.47H16.68C16.8789 12.47 17.0697 12.5491 17.2103 12.6897C17.351 12.8304 17.43 13.0211 17.43 13.22C17.43 13.419 17.351 13.6097 17.2103 13.7504C17.0697 13.891 16.8789 13.97 16.68 13.97H14.36C14.1619 13.9675 13.9726 13.8876 13.8325 13.7475C13.6924 13.6074 13.6126 13.4182 13.61 13.22V3.55005C13.61 3.35114 13.689 3.16037 13.8297 3.01972C13.9703 2.87907 14.1611 2.80005 14.36 2.80005H17.79C18.1763 2.7998 18.5585 2.88067 18.9116 3.03742C19.2647 3.19418 19.581 3.42333 19.84 3.71005L23.06 7.31005C23.5099 7.81747 23.7589 8.47186 23.76 9.15005V12.22C23.764 12.4532 23.7213 12.6848 23.6346 12.9013C23.5478 13.1177 23.4186 13.3147 23.2547 13.4805C23.0907 13.6463 22.8952 13.7777 22.6798 13.8669C22.4643 13.9562 22.2332 14.0014 22 14Z" fill="#F43838"/>
<path d="M18.69 16C18.1441 16 17.6105 15.8381 17.1566 15.5348C16.7027 15.2316 16.349 14.8005 16.1401 14.2962C15.9312 13.7919 15.8765 13.2369 15.983 12.7015C16.0895 12.1661 16.3524 11.6744 16.7384 11.2884C17.1244 10.9024 17.6162 10.6395 18.1515 10.533C18.6869 10.4265 19.2419 10.4812 19.7462 10.6901C20.2505 10.899 20.6816 11.2527 20.9848 11.7066C21.2881 12.1605 21.45 12.6941 21.45 13.24C21.45 13.6024 21.3786 13.9613 21.2399 14.2962C21.1012 14.631 20.8979 14.9353 20.6416 15.1916C20.3853 15.4479 20.0811 15.6512 19.7462 15.7899C19.4113 15.9286 19.0524 16 18.69 16ZM18.69 12C18.3558 12 18.0353 12.1327 17.799 12.369C17.5627 12.6053 17.43 12.9258 17.43 13.26C17.43 13.5942 17.5627 13.9146 17.799 14.1509C18.0353 14.3872 18.3558 14.52 18.69 14.52C19.0242 14.52 19.3447 14.3872 19.5809 14.1509C19.8172 13.9146 19.95 13.5942 19.95 13.26C19.95 12.9258 19.8172 12.6053 19.5809 12.369C19.3447 12.1327 19.0242 12 18.69 12Z" fill="#F43838"/>
<path d="M5.11999 16C4.57411 16 4.04049 15.8381 3.58661 15.5348C3.13273 15.2316 2.77898 14.8005 2.57008 14.2962C2.36118 13.7919 2.30652 13.2369 2.41302 12.7015C2.51951 12.1661 2.78238 11.6744 3.16837 11.2884C3.55436 10.9024 4.04615 10.6395 4.58154 10.533C5.11692 10.4265 5.67187 10.4812 6.17619 10.6901C6.68052 10.899 7.11157 11.2527 7.41484 11.7066C7.71812 12.1605 7.87999 12.6941 7.87999 13.24C7.87735 13.9712 7.58572 14.6717 7.06869 15.1887C6.55166 15.7057 5.85117 15.9973 5.11999 16ZM5.11999 12C4.87078 12 4.62717 12.0739 4.41997 12.2123C4.21276 12.3508 4.05127 12.5476 3.9559 12.7778C3.86053 13.008 3.83558 13.2614 3.8842 13.5058C3.93281 13.7502 4.05282 13.9747 4.22903 14.1509C4.40525 14.3272 4.62976 14.4472 4.87417 14.4958C5.11859 14.5444 5.37193 14.5194 5.60217 14.4241C5.8324 14.3287 6.02919 14.1672 6.16764 13.96C6.30609 13.7528 6.37999 13.5092 6.37999 13.26C6.37999 12.9258 6.24724 12.6053 6.01094 12.369C5.77465 12.1327 5.45416 12 5.11999 12Z" fill="#F43838"/>
</g>
<defs>
<clipPath id="clip0">
<rect width="23.76" height="15.98" fill="white"/>
</clipPath>
</defs>
</svg>
