<svg width="40" height="40" viewBox="0 0 40 40" fill="none" xmlns="http://www.w3.org/2000/svg">
<rect width="40" height="40" rx="8.98438" fill="#BBC1C7"/>
<path fill-rule="evenodd" clip-rule="evenodd" d="M21.1987 18.6994H21.0928V21.0934C22.2999 21.1798 23.49 20.7644 24.3862 19.9431C25.3083 19.098 25.8264 17.9095 25.835 16.5946C25.7063 14.0732 23.6398 12.096 21.1358 12.0991L17.313 12.0991C17.1161 12.0991 16.9565 12.2599 16.9565 12.4583V22.4994L16.2195 22.5001C15.5715 22.5007 15.0469 23.1042 15.0474 23.8477C15.0479 24.5913 15.5734 25.1938 16.2213 25.1933L16.9565 25.1926V26.7953C16.9565 27.5389 17.5546 28.1419 18.2927 28.1419C19.0309 28.1419 19.629 27.5389 19.629 26.7953L19.6293 25.1902L21.6877 25.1884C22.3357 25.1878 22.8604 24.5843 22.8599 23.8408C22.8594 23.0972 22.3338 22.4947 21.6859 22.4952L19.6299 22.4971L19.6316 14.5413L21.1536 14.5413C22.3859 14.5396 23.4027 15.4907 23.4824 16.7082C23.4689 17.2667 23.2266 17.7962 22.8107 18.1732C22.3857 18.5584 21.818 18.7494 21.2448 18.6994H21.1987Z" fill="#F8F8F8"/>
<path d="M21.0928 18.6994H21.1987H21.2448C21.818 18.7494 22.3857 18.5584 22.8107 18.1732C23.2266 17.7962 23.4689 17.2667 23.4824 16.7082C23.4027 15.4907 22.3859 14.5396 21.1536 14.5413L21.1358 12.0991C23.6398 12.096 25.7063 14.0732 25.835 16.5946C25.8264 17.9095 25.3083 19.098 24.3862 19.9431C23.49 20.7644 22.2999 21.1798 21.0928 21.0934L21.0928 18.6994Z" fill="#F8F8F8"/>
<path fill-rule="evenodd" clip-rule="evenodd" d="M21.2636 18.7009L21.1956 21.0964L16.3649 21.0659C15.6238 21.0659 15.0232 20.4646 15.0232 19.7232C15.0232 18.9817 15.6238 18.3804 16.3649 18.3804C17.1061 18.3804 19.6782 18.7009 21.2636 18.7009Z" fill="#F8F8F8"/>
<path d="M13.659 12.1497L11.2123 12.1463L11.689 11.6786C15.1773 8.25596 20.4336 7.32501 24.8972 9.34794C30.2435 11.7709 33.0155 17.7371 31.4189 23.3846C29.8223 29.0322 24.3366 32.6648 18.5128 31.9309C12.689 31.197 8.27638 26.3172 8.13122 20.4502C8.11437 19.769 7.54851 19.2305 6.86733 19.2474C6.18614 19.2642 5.6476 19.8301 5.66445 20.5112C5.83978 27.5981 11.1698 33.4925 18.2043 34.3789C25.2388 35.2653 31.8648 30.8775 33.7934 24.0558C35.7219 17.234 32.3736 10.0273 25.9159 7.10064C20.6765 4.72615 14.5155 5.71581 10.2936 9.60087L9.83501 10.0229V7.85898C9.83501 7.18079 9.28519 6.63101 8.60695 6.63101C7.9287 6.63101 7.37888 7.18079 7.37888 7.85898V13.372C7.37888 14.0497 7.92802 14.5995 8.60576 14.6001L13.6566 14.6056C14.3349 14.6063 14.8852 14.0571 14.8859 13.3789C14.8866 12.7007 14.3373 12.1504 13.659 12.1497Z" fill="#F8F8F8"/>
</svg>
