<svg width="9" height="14" viewBox="0 0 9 14" fill="none" xmlns="http://www.w3.org/2000/svg">
<path d="M8.75619 7.3072C8.75619 7.20006 8.70262 7.07952 8.62227 6.99916L2.38119 0.75809C2.30084 0.677734 2.1803 0.624162 2.07316 0.624162C1.96602 0.624162 1.84548 0.677734 1.76512 0.75809L1.09548 1.42773C1.01512 1.50809 0.961551 1.62863 0.961551 1.73577C0.961551 1.84291 1.01512 1.96345 1.09548 2.04381L6.35887 7.3072L1.09548 12.5706C1.01512 12.6509 0.961551 12.7715 0.961551 12.8786C0.961551 12.9992 1.01512 13.1063 1.09548 13.1867L1.76512 13.8563C1.84548 13.9367 1.96602 13.9902 2.07316 13.9902C2.1803 13.9902 2.30084 13.9367 2.38119 13.8563L8.62227 7.61523C8.70262 7.53488 8.75619 7.41434 8.75619 7.3072Z" fill="white"/>
</svg>
