<svg width="60" height="60" viewBox="0 0 60 60" fill="none" xmlns="http://www.w3.org/2000/svg">
<circle cx="30" cy="30" r="30" fill="white"/>
<path d="M29.4984 34.12C30.0318 34.12 30.4318 34.0467 30.6984 33.9C30.9651 33.74 31.0984 33.4267 31.0984 32.96V32.54C31.0984 32.14 30.9651 31.86 30.6984 31.7C30.4451 31.5267 30.0584 31.44 29.5384 31.44H28.2384V28.44H29.5384C29.8851 28.44 30.1451 28.3533 30.3184 28.18C30.5051 27.9933 30.5984 27.7467 30.5984 27.44V27.02C30.5984 26.4067 30.2318 26.1 29.4984 26.1C29.1651 26.1 28.8784 26.16 28.6384 26.28C28.4118 26.4 28.2784 26.7 28.2384 27.18H24.0184C24.0184 26.38 24.1518 25.7067 24.4184 25.16C24.6851 24.6133 25.0584 24.1733 25.5384 23.84C26.0184 23.5067 26.5851 23.2667 27.2384 23.12C27.9051 22.9733 28.6384 22.9 29.4384 22.9C31.0918 22.9 32.3718 23.2133 33.2784 23.84C34.1851 24.4533 34.6384 25.3533 34.6384 26.54C34.6384 27.3 34.4518 27.9533 34.0784 28.5C33.7184 29.0333 33.1118 29.4333 32.2584 29.7C34.1784 30.14 35.1384 31.2267 35.1384 32.96C35.1384 34.36 34.6784 35.44 33.7584 36.2C32.8518 36.9467 31.4318 37.32 29.4984 37.32C28.5918 37.32 27.7718 37.24 27.0384 37.08C26.3184 36.9333 25.7051 36.6867 25.1984 36.34C24.7051 35.9933 24.3251 35.5467 24.0584 35C23.7918 34.44 23.6584 33.76 23.6584 32.96H27.9184C27.9051 33.36 28.0384 33.6533 28.3184 33.84C28.5984 34.0267 28.9918 34.12 29.4984 34.12Z" fill="#202D3D"/>
</svg>
