<svg width="60" height="60" viewBox="0 0 60 60" fill="none" xmlns="http://www.w3.org/2000/svg">
<circle cx="30" cy="30" r="30" fill="white"/>
<path d="M29.9584 25.1C29.4518 25.1 29.1118 25.2 28.9384 25.4C28.7651 25.6 28.6518 25.9533 28.5984 26.46H24.4984C24.5251 25.6067 24.6718 24.8933 24.9384 24.32C25.2051 23.7333 25.5718 23.26 26.0384 22.9C26.5051 22.54 27.0651 22.2867 27.7184 22.14C28.3851 21.98 29.1318 21.9 29.9584 21.9C30.8518 21.9 31.6318 21.98 32.2984 22.14C32.9784 22.2867 33.5451 22.5333 33.9984 22.88C34.4518 23.2133 34.7918 23.6533 35.0184 24.2C35.2584 24.7467 35.3784 25.4133 35.3784 26.2C35.3784 26.9467 35.2318 27.5867 34.9384 28.12C34.6451 28.64 34.2718 29.0867 33.8184 29.46C33.3784 29.8333 32.8918 30.1467 32.3584 30.4C31.8384 30.6533 31.3451 30.8933 30.8784 31.12C30.4118 31.3467 30.0051 31.5733 29.6584 31.8C29.3251 32.0267 29.1318 32.2933 29.0784 32.6H35.3784V36H24.5184V34C24.5184 33.04 24.6851 32.2533 25.0184 31.64C25.3518 31.0133 25.7651 30.4933 26.2584 30.08C26.7651 29.6667 27.3118 29.3267 27.8984 29.06C28.4851 28.7933 29.0251 28.5467 29.5184 28.32C30.0251 28.08 30.4451 27.8267 30.7784 27.56C31.1118 27.2933 31.2784 26.9467 31.2784 26.52V26.18C31.2784 25.8067 31.1784 25.5333 30.9784 25.36C30.7918 25.1867 30.4518 25.1 29.9584 25.1Z" fill="#202D3D"/>
</svg>
