<svg width="22" height="21" viewBox="0 0 22 21" fill="none" xmlns="http://www.w3.org/2000/svg">
<g clip-path="url(#clip0)">
<path d="M10.84 16.6099C10.5084 16.6102 10.1808 16.5378 9.88019 16.3979C9.57958 16.2579 9.31328 16.0538 9.10001 15.7999C6.64001 12.7999 2.91001 7.23991 5.54001 2.85991C6.25904 1.68852 7.36695 0.807154 8.67001 0.36991C9.60668 0.0297023 10.6115 -0.0800885 11.5995 0.0498114C12.5875 0.179711 13.5298 0.545486 14.3467 1.11624C15.1636 1.687 15.8312 2.44597 16.293 3.32904C16.7548 4.21212 16.9973 5.19337 17 6.18991C17 9.90991 14.2 13.8199 12.53 15.8099C12.3239 16.0587 12.0658 16.2592 11.7738 16.3974C11.4818 16.5357 11.1631 16.6082 10.84 16.6099ZM10.84 1.49991C10.2712 1.50459 9.70707 1.60256 9.17001 1.78991C8.19388 2.11175 7.36202 2.76662 6.82001 3.63991C4.59001 7.34991 8.48001 12.7099 10.26 14.8399C10.3312 14.9244 10.42 14.9923 10.5202 15.0389C10.6204 15.0855 10.7295 15.1098 10.84 15.1099C10.9469 15.1115 11.0528 15.089 11.1497 15.044C11.2467 14.9989 11.3323 14.9326 11.4 14.8499C12.94 13.0099 15.52 9.43991 15.52 6.18991C15.5182 5.43932 15.3354 4.70023 14.9873 4.03527C14.6391 3.3703 14.1358 2.79905 13.52 2.36991C12.7372 1.80411 11.7959 1.49966 10.83 1.49991H10.84Z" fill="#F43838"/>
<path d="M10.84 8.99989C10.2854 9.00186 9.74265 8.83908 9.28066 8.53217C8.81868 8.22526 8.45825 7.78807 8.24508 7.27603C8.03192 6.76399 7.97563 6.20018 8.08335 5.6561C8.19107 5.11202 8.45794 4.61219 8.85013 4.22C9.24232 3.82782 9.74215 3.56094 10.2862 3.45322C10.8303 3.3455 11.3941 3.40179 11.9062 3.61496C12.4182 3.82812 12.8554 4.18855 13.1623 4.65054C13.4692 5.11252 13.632 5.65525 13.63 6.20989C13.6274 6.94903 13.3326 7.65715 12.8099 8.1798C12.2873 8.70246 11.5792 8.99725 10.84 8.99989ZM10.84 4.90989C10.5825 4.9079 10.3302 4.98246 10.1151 5.1241C9.89997 5.26573 9.73179 5.46807 9.63186 5.70543C9.53193 5.94279 9.50476 6.20449 9.55378 6.45732C9.60281 6.71015 9.72583 6.94272 9.90723 7.12553C10.0886 7.30834 10.3203 7.43315 10.5727 7.48413C10.8251 7.5351 11.087 7.50995 11.3252 7.41186C11.5633 7.31376 11.7669 7.14715 11.9102 6.93316C12.0535 6.71916 12.13 6.46743 12.13 6.20989C12.1274 5.86857 11.9906 5.54197 11.7493 5.30061C11.5079 5.05925 11.1813 4.9225 10.84 4.91989V4.90989Z" fill="#F43838"/>
<path d="M19.42 20.5499H2.25002C1.87828 20.5523 1.51179 20.4622 1.18359 20.2876C0.855391 20.113 0.575797 19.8595 0.370018 19.5499C0.159682 19.2364 0.0327667 18.8745 0.00127045 18.4983C-0.0302258 18.1221 0.0347369 17.744 0.190018 17.3999L2.19002 12.7799C2.36672 12.3782 2.65656 12.0367 3.02415 11.7969C3.39173 11.5572 3.82117 11.4297 4.26002 11.4299H7.42002V12.9299H4.27002C4.12392 12.9307 3.98114 12.9735 3.85876 13.0533C3.73639 13.1331 3.63961 13.2465 3.58002 13.3799L1.56002 17.9999C1.51012 18.1143 1.48952 18.2393 1.50011 18.3636C1.51069 18.4879 1.55211 18.6076 1.62062 18.7118C1.68914 18.8161 1.78257 18.9016 1.89247 18.9606C2.00237 19.0197 2.12526 19.0504 2.25002 19.0499H19.42C19.5448 19.0504 19.6677 19.0197 19.7776 18.9606C19.8875 18.9016 19.9809 18.8161 20.0494 18.7118C20.1179 18.6076 20.1593 18.4879 20.1699 18.3636C20.1805 18.2393 20.1599 18.1143 20.11 17.9999L18.11 13.3799C18.0504 13.2465 17.9536 13.1331 17.8313 13.0533C17.7089 12.9735 17.5661 12.9307 17.42 12.9299H14.25V11.4299H17.4C17.8389 11.4297 18.2683 11.5572 18.6359 11.7969C19.0035 12.0367 19.2933 12.3782 19.47 12.7799L21.47 17.3999C21.6217 17.7414 21.6847 18.1157 21.6533 18.488C21.6218 18.8604 21.4969 19.2187 21.29 19.5299C21.0875 19.8418 20.8105 20.0984 20.484 20.2764C20.1576 20.4545 19.7919 20.5485 19.42 20.5499Z" fill="#F43838"/>
</g>
<defs>
<clipPath id="clip0">
<rect width="21.67" height="20.55" fill="white"/>
</clipPath>
</defs>
</svg>
