<svg width="154" height="51" viewBox="0 0 154 51" fill="none" xmlns="http://www.w3.org/2000/svg">
<path d="M41.8607 39.0206V50.0192H2.89914V41.3324L21.496 24.169C23.3816 22.4409 24.6544 20.9698 25.3144 19.7555C26.0215 18.4945 26.3751 17.2569 26.3751 16.0426C26.3751 14.5481 25.7858 13.3805 24.6073 12.5398C23.4288 11.6525 21.7789 11.2088 19.6576 11.2088C17.5834 11.2088 15.7449 11.6291 14.1421 12.4698C12.5393 13.2637 11.243 14.4313 10.253 15.9725L0 10.228C1.83848 7.0522 4.50191 4.55357 7.9903 2.73214C11.5258 0.910714 15.792 0 20.7889 0C24.6544 0 28.0721 0.607143 31.042 1.82143C34.0118 3.03571 36.3217 4.78709 37.9716 7.07555C39.6215 9.31731 40.4465 11.9327 40.4465 14.9217C40.4465 17.4904 39.8101 19.9423 38.5373 22.2775C37.3116 24.6126 35.0018 27.3448 31.6077 30.4739L22.2738 39.0206H41.8607Z" fill="white"/>
<path d="M69.5754 51C65.2385 51 61.3965 49.9959 58.0496 47.9876C54.7026 45.9327 52.0863 42.9904 50.2007 39.1607C48.3622 35.2843 47.443 30.7308 47.443 25.5C47.443 20.2692 48.3622 15.739 50.2007 11.9093C52.0863 8.03297 54.7026 5.09066 58.0496 3.08242C61.3965 1.02747 65.2385 0 69.5754 0C73.9123 0 77.7542 1.02747 81.1012 3.08242C84.4482 5.09066 87.0409 8.03297 88.8794 11.9093C90.765 15.739 91.7078 20.2692 91.7078 25.5C91.7078 30.7308 90.765 35.2843 88.8794 39.1607C87.0409 42.9904 84.4482 45.9327 81.1012 47.9876C77.7542 49.9959 73.9123 51 69.5754 51ZM69.5754 39.6511C72.0267 39.6511 73.983 38.5069 75.4444 36.2184C76.9057 33.9299 77.6364 30.3571 77.6364 25.5C77.6364 20.6429 76.9057 17.0701 75.4444 14.7816C73.983 12.4931 72.0267 11.3489 69.5754 11.3489C67.1241 11.3489 65.1678 12.4931 63.7064 14.7816C62.2451 17.0701 61.5144 20.6429 61.5144 25.5C61.5144 30.3571 62.2451 33.9299 63.7064 36.2184C65.1678 38.5069 67.1241 39.6511 69.5754 39.6511Z" fill="white"/>
<path d="M106.341 27.5316C102.617 27.5316 99.5764 26.3173 97.2194 23.8887C94.8624 21.4602 93.6838 18.1442 93.6838 13.9409C93.6838 11.1854 94.226 8.78022 95.3102 6.72528C96.3944 4.67033 97.8793 3.10577 99.765 2.03159C101.698 0.910714 103.89 0.350274 106.341 0.350274C110.112 0.350274 113.176 1.58791 115.533 4.06319C117.89 6.49176 119.069 9.78434 119.069 13.9409C119.069 18.1442 117.89 21.4602 115.533 23.8887C113.176 26.3173 110.112 27.5316 106.341 27.5316ZM135.615 0.980769H145.798L111.998 50.0192H101.816L135.615 0.980769ZM106.341 20.8764C107.614 20.8764 108.627 20.3159 109.382 19.1951C110.136 18.0742 110.513 16.3228 110.513 13.9409C110.513 11.5591 110.136 9.80769 109.382 8.68681C108.627 7.56593 107.614 7.0055 106.341 7.0055C105.115 7.0055 104.102 7.58928 103.3 8.75687C102.546 9.87775 102.169 11.6058 102.169 13.9409C102.169 16.2761 102.546 18.0275 103.3 19.1951C104.102 20.3159 105.115 20.8764 106.341 20.8764ZM141.272 50.6497C137.501 50.6497 134.437 49.4354 132.08 47.0069C129.77 44.5783 128.615 41.2624 128.615 37.0591C128.615 32.9025 129.793 29.6099 132.15 27.1813C134.507 24.706 137.548 23.4684 141.272 23.4684C145.043 23.4684 148.107 24.706 150.464 27.1813C152.822 29.6099 154 32.9025 154 37.0591C154 41.2624 152.822 44.5783 150.464 47.0069C148.107 49.4354 145.043 50.6497 141.272 50.6497ZM141.272 43.9945C142.545 43.9945 143.558 43.4341 144.313 42.3132C145.067 41.1923 145.444 39.4409 145.444 37.0591C145.444 34.6772 145.067 32.9258 144.313 31.8049C143.558 30.6841 142.545 30.1236 141.272 30.1236C139.999 30.1236 138.986 30.6841 138.232 31.8049C137.477 32.9258 137.1 34.6772 137.1 37.0591C137.1 39.4409 137.477 41.1923 138.232 42.3132C138.986 43.4341 139.999 43.9945 141.272 43.9945Z" fill="white"/>
</svg>
