<svg width="18" height="16" viewBox="0 0 18 16" fill="none" xmlns="http://www.w3.org/2000/svg">
<path fill-rule="evenodd" clip-rule="evenodd" d="M17 2.66667H1C0.447715 2.66667 0 2.06971 0 1.33333C0 0.596954 0.447715 0 1 0H17C17.5523 0 18 0.596954 18 1.33333C18 2.06971 17.5523 2.66667 17 2.66667ZM1 9.33333H17C17.5523 9.33333 18 8.73638 18 8C18 7.26362 17.5523 6.66667 17 6.66667H1C0.447715 6.66667 0 7.26362 0 8C0 8.73638 0.447715 9.33333 1 9.33333ZM1 16H17C17.5523 16 18 15.403 18 14.6667C18 13.9303 17.5523 13.3333 17 13.3333H1C0.447715 13.3333 0 13.9303 0 14.6667C0 15.403 0.447715 16 1 16Z" fill="#001424"/>
</svg>
