<svg width="40" height="40" viewBox="0 0 40 40" fill="none" xmlns="http://www.w3.org/2000/svg">
<path fill-rule="evenodd" clip-rule="evenodd" d="M0 20C0 8.9543 8.9543 0 20 0C31.0457 0 40 8.9543 40 20C40 31.0457 31.0457 40 20 40C8.9543 40 0 31.0457 0 20Z" fill="#BBC1C7"/>
<path fill-rule="evenodd" clip-rule="evenodd" d="M20.4306 27.3332C20.4306 27.3332 20.8265 27.2878 21.0292 27.0633C21.2148 26.8575 21.2084 26.4692 21.2084 26.4692C21.2084 26.4692 21.1837 24.6561 22.0002 24.3884C22.8048 24.1251 23.838 26.1418 24.9345 26.9172C25.7627 27.5035 26.3914 27.3752 26.3914 27.3752L29.3214 27.3332C29.3214 27.3332 30.8535 27.2358 30.1271 25.9935C30.0671 25.8918 29.7034 25.0743 27.9492 23.395C26.1114 21.6373 26.3582 21.9216 28.5704 18.8806C29.9179 17.0287 30.4565 15.8982 30.2881 15.4148C30.1282 14.9524 29.1369 15.0752 29.1369 15.0752L25.8389 15.0962C25.8389 15.0962 25.5943 15.0619 25.413 15.1736C25.2359 15.2831 25.1211 15.5387 25.1211 15.5387C25.1211 15.5387 24.5997 16.9712 23.9034 18.1903C22.4347 20.7611 21.8478 20.8972 21.6075 20.7379C21.0485 20.3651 21.188 19.2423 21.188 18.4447C21.188 15.9524 21.5549 14.9137 20.4746 14.6448C20.1162 14.5552 19.8523 14.4966 18.935 14.4867C17.7581 14.4745 16.7624 14.4911 16.1981 14.7754C15.8226 14.9645 15.5329 15.3871 15.71 15.4115C15.9278 15.4413 16.4213 15.5486 16.6831 15.9159C17.021 16.3905 17.0092 17.4546 17.0092 17.4546C17.0092 17.4546 17.2034 20.3883 16.5554 20.7523C16.1112 21.0023 15.5018 20.4923 14.1919 18.1593C13.5213 16.9646 13.0149 15.6438 13.0149 15.6438C13.0149 15.6438 12.9173 15.3971 12.7424 15.2643C12.5311 15.1039 12.236 15.0541 12.236 15.0541L9.10219 15.0752C9.10219 15.0752 8.6312 15.0884 8.45847 15.2997C8.30505 15.4867 8.44667 15.875 8.44667 15.875C8.44667 15.875 10.9003 21.7943 13.679 24.7778C16.2271 27.5124 19.1195 27.3332 19.1195 27.3332H20.4306Z" fill="#F2F2F3"/>
</svg>
